<svg xmlns="http://www.w3.org/2000/svg" viewBox="0 0 384 512" width="48" height="48">
<path fill="white" d="M318.7 268.7c-.3-37.3 16.5-65.4 50-86.3-18.8-26.9-47.2-41.7-84.7-44.5-35.5-2.6-74 20.7-88.4 20.7-15 0-49.4-19.7-76.4-19.7C63.3 139 0 200 0 303.3c0 25.7 4.7 52.3 14.3 79.7 12.7 36.8 58.4 126.5 106.1 125.1 24.9-.6 42.6-17.6 74.9-17.6 31.7 0 48.1 17.6 76.4 17.6 48.1-.7 89.2-82.3 101.5-119.2-64.6-30.5-54.5-112.9-54.5-120.2zM260.1 92.3c27.3-32.4 24.8-61.9 24-72.3-24.5 1.4-52.9 16.7-69.7 36.5-18.3 21.2-28.4 47.3-26.2 74 26.6 2 51.5-11.4 71.9-38.2z"/>
</svg>
