<svg xmlns="http://www.w3.org/2000/svg" width="48" height="48" viewBox="0 0 48 48">
<path fill="#EA4335" d="M24 9.5c3.54 0 6.71 1.22 9.21 3.6l6.85-6.85C35.79 1.8 30.28 0 24 0 14.62 0 6.51 5.38 2.56 13.22l7.98 6.19C12.43 12.15 17.74 9.5 24 9.5z"/>
<path fill="#FBBC04" d="M46.08 24.55c0-1.56-.14-3.06-.41-4.5H24v9h12.55c-.54 2.92-2.14 5.4-4.57 7.08l7.01 5.44c4.11-3.79 6.09-9.36 6.09-15.02z"/>
<path fill="#34A853" d="M10.54 28.41C9.85 26.65 9.5 24.84 9.5 23s.35-3.65 1.04-5.41l-7.98-6.19C.76 15.1 0 18.47 0 23c0 4.53.76 7.9 2.56 11.6l7.98-6.19z"/>
<path fill="#4285F4" d="M24 46c6.28 0 11.56-2.06 15.43-5.61l-7.01-5.44c-2.01 1.36-4.68 2.17-8.42 2.17-6.26 0-11.57-3.65-13.92-8.71l-7.98 6.19C6.51 42.62 14.62 48 24 48z"/>
</svg>
